<?xml version="1.0" encoding="UTF-8"?>
<svg id="Camada_2" data-name="Camada 2" xmlns="http://www.w3.org/2000/svg" viewBox="0 0 50 50">
  <defs>
    <style>
      .cls-1 {
        fill: #efb902;
      }

      .cls-2 {
        fill: #fff;
      }

      .cls-3 {
        fill: #d28ba2;
      }

      .cls-4 {
        fill: #d689a1;
      }

      .cls-5 {
        fill: #441c34;
      }

      .cls-6 {
        fill: #422235;
      }

      .cls-7 {
        fill: #6a9a25;
      }
    </style>
  </defs>
  <g id="Camada_1-2" data-name="Camada 1">
    <circle class="cls-2" cx="25" cy="25" r="25"/>
  </g>
  <g id="Camada_2-2" data-name="Camada 2">
    <g>
      <path class="cls-1" d="M11.9,23.67c1.13.41,1.39-.49,1.3-1.43-.16-1.74-2.04-2.06-2.91-.56s-.99,5.86.65,6.99c1.14.78,2.43.03,2.82-1.17.05-.16.11-.75.14-.78.02-.02.45-.1.43.13-.13,1.92-1.51,3.54-3.55,2.94-3.71-1.09-3.29-10.14,1.49-9.4,1.46.23,2.25,1.91,1.92,3.27s-2.05,1.32-2.29.02Z"/>
      <path class="cls-7" d="M34.52,23.06s.17,0,.25-.05c.79-.54-.06-2-1.03-.95-.86.92-.85,3.67-.34,4.77.6,1.27,1.82.82,2.29-.29.16-.38,0-.71.48-.61.13.97-.62,2.47-1.63,2.68-3.99.81-3.64-8.77.52-7.27,1.43.52,1.25,2.73-.14,2.31-.15-.05-.49-.5-.41-.59Z"/>
      <path class="cls-7" d="M38.44,18.37v9.61c0,.13.29.46.26.65h-1.83l.26-.74c-.11-2.69.12-5.41.04-8.09-.02-.5-.03-1-.3-1.43h1.57Z"/>
      <path class="cls-7" d="M11.64,19.76c.05-.5-.32-1.01-.23-1.48.11-.59.67-1.06,1.18-1.3-.25.7.42,1.33.24,2.02-.11.41-.79.79-1.2.76Z"/>
      <path class="cls-7" d="M9.63,29.67c-.15.38-.04.77-.11,1.15-.14.81-.91,1.14-1.63,1.28.33-.58,0-1.46.39-2,.25-.34.95-.42,1.35-.44Z"/>
      <path class="cls-7" d="M5.11,28.19l1.22-1.26c.48-.41,1.2-.07,1.57.35-.83,1.06-1.42,1.49-2.78.91Z"/>
      <path class="cls-7" d="M7.81,24.02c-.87.02-1.36.58-2.18-.04-.11-.08-.71-.74-.61-.83.61.14,1.29-.43,1.85-.33.53.09.77.76.94,1.2Z"/>
      <path class="cls-7" d="M7.28,18.45c.15.07.15.2.33.32.9.57,2.18.36,1.36,2.11-.3-.31-.76-.3-1.12-.53-.69-.44-.59-1.18-.58-1.9Z"/>
      <path class="cls-4" d="M11.81,30.37c.21.09.92-.31,1-.18.05.09.47,1.85.47,1.96-.01.49-.72.79-1.02.24-.09-.16-.53-1.95-.45-2.03Z"/>
      <path class="cls-6" d="M34.53,32.02c-.78,1.18,1.25,1.13.56.09-.24-.37-.82-.39-.9-.92-.19-1.2,1.49-.89,1.17-.21-.04.08-.16.19-.26.17-.22-.04.03-.37-.08-.53s-.41-.13-.47.06c-.22.68.68.8.92,1.23.77,1.37-1.76,1.55-1.44.43.05-.18.31-.37.51-.32Z"/>
      <path class="cls-6" d="M28.51,31.23c-.09.05-.3,0-.42.01-.08-.07.37-.46.09-.66-.68-.49-1.11,2.25-.07,2.12.27-.03.31-.27.4-.48s.12-.23.1.01c-.04.37-.25.78-.66.83-1.25.13-1.24-3.08.34-2.59.25.08.39.65.22.75Z"/>
      <path class="cls-6" d="M31.65,29.41v3.43s.12.12.09.22h-.61c.33-1.12.18-2.49.09-3.65h.43Z"/>
      <path class="cls-6" d="M26.6,30.45v2.39s.12.12.09.22h-.61s.09-.11.09-.13v-2.48h.44Z"/>
      <path class="cls-1" d="M13.81,29.59l1.4,1.08c.2.27.05.7-.31.66s-.89-1.42-1.09-1.74Z"/>
      <path class="cls-1" d="M7.98,22.1c-.43-.18-1.63-.26-1.95-.51-.1-.08-.08-.44-.02-.54.29-.43,1.69.81,1.96,1.05Z"/>
      <path class="cls-1" d="M13.64,20.19l.82-1.48c.13-.18.38-.23.58-.13.12.09.11.44.04.57l-1.43,1.04Z"/>
      <path class="cls-1" d="M8.33,28.72c-.29.28-1.18,1.4-1.51,1.39s-.44-.33-.3-.59c.06-.1,1.56-.73,1.81-.8Z"/>
      <path class="cls-5" d="M7.44,25.82c-.36.36-.99-.25-.55-.6s.9.24.55.6Z"/>
      <path class="cls-5" d="M10.22,19.16c.6-.18.71.62.22.75s-.64-.63-.22-.75Z"/>
      <path class="cls-5" d="M10.57,30.47c.82-.24.6,1.02-.04.7-.31-.15-.26-.62.04-.7Z"/>
      <path class="cls-6" d="M33.05,30.02c.06-.12.6-.91.7-.48.04.18-.58.56-.7.48Z"/>
      <path class="cls-6" d="M26.6,30.02c-.57.14-.53-.55-.13-.43.14.04.15.31.13.43Z"/>
      <path class="cls-3" d="M24.8,22.73c-.49-1.51-1.96-2.03-3.16-.89v-3.48h-1.48c.03.13.26.47.26.57v9.7c.52-.06,1.27.27,1.13-.52.82.86,2.14.68,2.82-.27.83-1.15.84-3.8.42-5.11ZM23.37,27.35c-.21.48-.59.92-1.15.57-.64-.4-.63-3.13-.58-3.86.03-.52.18-1.65.56-2.01.39-.37.82-.21,1.09.2.72,1.08.59,3.93.08,5.1Z"/>
      <path class="cls-1" d="M19.21,27.72c-.18-1.71.17-3.7-.04-5.44-.38-1.63-4.15-1.53-3.77.81.02.1.16.48.26.53.34.15,1.01.12,1.16-.28.15-.41-.16-.17-.35-.44-.57-.8.54-1.77,1.21-1.04.36.39.4,1.52.29,2.02-.14.6-1.51.8-2,1.05-1.44.72-1.38,3.94.85,3.71.63-.06.82-.43,1.26-.78-.01.1.05.78.09.78h1.39c-.18-.27-.31-.59-.35-.91ZM17.99,26.85s-.19.48-.23.56c-.61,1.14-1.52.35-1.52-.73,0-1.24.81-1.53,1.75-2.04v2.22Z"/>
      <path class="cls-3" d="M28.06,21.17c-3.11.49-2.97,7.21-.02,7.54,4.15.47,3.91-8.16.02-7.54ZM28.47,28.29c-.99.04-1.38-1.73-1.44-2.48-.07-.95-.01-4.13,1.37-4.2,1.01-.05,1.38,1.97,1.43,2.71.06.9-.08,3.91-1.35,3.97Z"/>
      <path class="cls-7" d="M42.79,21.28c-.81-.28-1.69-.08-2.32.51-1.95,1.84-1.33,7.61,2.15,6.89,2.61-.54,2.8-6.5.17-7.39ZM42.61,28.06c-1.33,1.15-1.94-1.67-2-2.51-.06-.88.13-3.87,1.37-3.93.77-.04,1.18,1.09,1.31,1.69.24,1.14.27,3.93-.68,4.75Z"/>
      <path class="cls-6" d="M25.39,30.5c-.41-.18-.6.1-.74.1-.07,0-.29-.23-.48-.14v3.52s-.13.1-.09.13h.61c-.13-.39-.08-.81-.09-1.22,1.35.85,1.57-2.03.78-2.39ZM24.99,32.88c-.55.1-.46-2.09-.2-2.24.75-.46.79,2.14.2,2.24Z"/>
      <path class="cls-6" d="M29.8,30.39c-1.15.11-1.18,2.78.15,2.68,1.24-.09,1.07-2.8-.15-2.68ZM29.87,32.98c-.61,0-.71-2.25-.07-2.42.48-.13.64.81.64,1.16,0,.31-.15,1.26-.57,1.26Z"/>
      <path class="cls-6" d="M33.33,32.63c-.57.34-.82-.42-.81-.87,2.42-.05.39-2.57-.3-.69-.18.48-.16.97.02,1.45.38.99,1.48.52,1.41-.41-.17.07-.13.41-.32.53ZM33.31,30.85c.1.62-.33.66-.78.82-.19-.51.64-1.73.78-.82Z"/>
    </g>
  </g>
</svg>