<?xml version="1.0" encoding="UTF-8"?>
<svg id="Camada_2" data-name="Camada 2" xmlns="http://www.w3.org/2000/svg" viewBox="0 0 50 50">
  <defs>
    <style>
      .cls-1 {
        fill: #fff;
      }

      .cls-2 {
        fill: #fa3296;
      }

      .cls-3 {
        fill: #323396;
      }
    </style>
  </defs>
  <g id="Camada_1-2" data-name="Camada 1">
    <circle class="cls-1" cx="25" cy="25" r="25"/>
  </g>
  <g id="Camada_2-2" data-name="Camada 2">
    <g>
      <path class="cls-3" d="M30.48,29.81s-.03.06-.04.07c-.03.02-.56.02-.63.01-.08,0-.09-.05-.1-.12v-8.42c-.02-.18.59-.13.66-.1.02,0,.03.02.05.04l4.48,6.97v-6.93s.04-.06.06-.07c.06-.04.46-.03.55-.03.07,0,.15.02.16.1v8.51s-.04.03-.06.04c-.06.02-.48.02-.55,0-.03,0-.06,0-.08-.03l-4.45-6.92-.05-.05v6.93Z"/>
      <path class="cls-3" d="M13.63,23.87s.01-.02.02,0c0,.47.05,1.1,0,1.55,0,.04,0,.07-.03.1-1.35,1.39-2.66,2.83-4.01,4.21-.04.05-.31.32-.34.32-1.44-1.49-2.85-3.03-4.29-4.53-.05-.37-.02-.76-.02-1.14,0-.17-.02-.34-.02-.52,0-.02.01-.02.02,0,1.46,1.5,2.9,3.01,4.32,4.52,1.45-1.5,2.88-3.01,4.29-4.53h.05Z"/>
      <path class="cls-3" d="M39.97,28.63l.03-.04,2.72-7.26c.02-.05.07-.08.13-.09.07-.01.56-.01.6.01.04.02.07.07.07.11-1.02,2.83-2.11,5.63-3.14,8.45-.01.03-.03.06-.06.08-.03.02-.61.02-.67.01-.02,0-.03,0-.04-.02l-3.05-8.49s.02-.09.06-.12c.06-.04.62-.04.69,0,.03.01.04.03.05.06l2.62,7.33Z"/>
      <path class="cls-2" d="M13.65,23.87h-.02l-.05.02c-.38-.39-.76-.77-1.15-1.14h-6.25s-.07.02-.07.02l-1.1,1.12h-.05s-.02-.01-.02-.01c0-.5,0-1,.01-1.5l1.12-1.1.09-.02h6.32c.39.38.79.75,1.16,1.14,0,.49,0,.99,0,1.48Z"/>
      <path class="cls-3" d="M21.19,22.04c-.08.08-.98-.05-1.15-.06-.75-.05-1.96-.2-2.62.18-.87.49-1,1.95-1.03,2.85-.05,1.27.02,3.56,1.47,4.06.66.23,1.86.1,2.58.04.13,0,.69-.1.76-.04.05.05.05.56-.02.6-.05.04-.41.08-.5.1-2.11.34-4.05.51-4.78-1.92-.41-1.35-.43-4.18.24-5.44.84-1.56,2.67-1.33,4.17-1.12.22.03.63.07.83.14.02,0,.05.03.07.04.03.05.03.52,0,.56Z"/>
      <path class="cls-3" d="M44.59,21.24c.07-.02.49-.02.56,0,.07.02.1.07.1.14v8.39c0,.07-.05.11-.12.12-.09.01-.49.01-.57,0-.05-.01-.08-.04-.08-.1v-8.44c0-.06.05-.1.1-.12Z"/>
      <path class="cls-3" d="M28.72,29.67c-.96-2.6-1.85-5.23-2.81-7.83-.05-.14-.13-.43-.19-.53-.02-.03-.03-.05-.07-.06-.07-.02-.5-.02-.59-.01-.06,0-.1.02-.13.07l-3.16,8.41c-.03.07-.02.15.07.17.11.02.52.02.64,0,.02,0,.05,0,.07-.02l1.05-2.79h3.35s1.01,2.78,1.01,2.78c.02.03.05.03.08.03.07,0,.61,0,.65-.01.06-.03.05-.15.03-.21ZM23.89,26.3l1.46-3.79,1.32,3.79h-2.78Z"/>
    </g>
  </g>
</svg>