<?xml version="1.0" encoding="UTF-8"?>
<svg id="Camada_2" data-name="Camada 2" xmlns="http://www.w3.org/2000/svg" viewBox="0 0 50 50">
  <defs>
    <style>
      .cls-1 {
        fill: #fff;
      }

      .cls-2 {
        fill: #1515d1;
      }
    </style>
  </defs>
  <g id="Camada_1-2" data-name="Camada 1">
    <circle class="cls-1" cx="25" cy="25" r="25"/>
  </g>
  <g id="Camada_2-2" data-name="Camada 2">
    <g>
      <path class="cls-2" d="M10.55,20.38h-4.97c-.09,0-.17,0-.24.06-.08.07-.07.13-.07.23v.93h4.23l-.89.78c-.06.05-.09.09-.1.18,0,.09.04.14.1.2l.76.76,1.19-1.04v2.92h-3.33l1.29-1.13-.75-.75c-.06-.06-.12-.12-.22-.12s-.16.06-.23.12l-1.93,1.69c-.19.17-.31.34-.31.62,0,.51.39.76.85.76h5.89v-5.53c0-.8-.66-.68-1.25-.68"/>
      <path class="cls-2" d="M13.06,21.59h3.25l-3.07,3.55c-.18.21-.32.35-.32.67,0,.29.15.54.39.66.15.08.25.08.42.08,1.39,0,2.79,0,4.18,0v-1.21h-3.25l3.25-3.75v-1.22h-4.86v1.22Z"/>
      <path class="cls-2" d="M22.17,20.37h-1.74c-.91,0-1.65.74-1.65,1.65v4.53h1.21v-1.86h2.61v1.86h1.22v-4.53c0-.91-.74-1.65-1.65-1.65M22.6,23.47h-2.61v-1.43c0-.26.21-.46.46-.46h1.69c.26,0,.46.2.46.46v1.43Z"/>
      <path class="cls-2" d="M38.04,24.18c.15,0,.3.03.44.07.21.06.39.18.54.32.03.03.06.06.08.08v-4.28h-1.22v3.81c.05,0,.11,0,.15,0"/>
      <path class="cls-2" d="M28.07,20.37h-3.39v6.18h1.21v-1.86h2.18c.9,0,1.63-.72,1.65-1.62v-1.08c-.02-.9-.75-1.62-1.65-1.62M28.5,23.02c0,.26-.2.46-.46.46h-2.15v-1.88h2.15c.26,0,.46.2.46.46v.97Z"/>
      <path class="cls-2" d="M35.21,26.24c.22-.32.46-.63.73-.89.02-.02.03-.03.05-.05-.15-.08-.26-.23-.26-.41v-4.51h-1.21v4.53c0,.55.27,1.04.69,1.34"/>
      <path class="cls-2" d="M32.2,25.34c-.25,0-.46-.21-.46-.46v-4.51h-1.21v4.53c0,.91.74,1.65,1.65,1.65h2.25l-.37-1.21h-1.87Z"/>
      <path class="cls-2" d="M43.27,22.85h-1.72c-.25,0-.46-.2-.46-.46v-.35c0-.26.21-.46.46-.46h2.54l.37-1.22h-2.93c-.91,0-1.65.74-1.65,1.65v.4c0,.91.74,1.65,1.65,1.65h1.71c.26,0,.46.2.46.46v.36c0,.25-.2.46-.46.46h-2.99l-.28.92c.09-.03.18-.06.27-.09.34-.1.7-.11,1.05-.05h.01s.01,0,.01,0c.12.03.23.08.34.14h0c.11.07.2.17.27.28h.69s0-.04,0-.06c0-.16.05-.31.13-.45v-.02s.02-.02.02-.02c.06-.08.13-.15.21-.22h.01s.01-.02.01-.02c.15-.12.34-.19.53-.18.08,0,.16,0,.24.02h.06s.07.05.07.05c.05.02.09.05.13.08.15.12.23.29.23.48.4-.3.66-.78.66-1.32v-.4c0-.91-.74-1.65-1.65-1.65"/>
      <path class="cls-2" d="M42.38,29.79c-.1-.05-.22-.1-.36-.13-.14-.03-.27-.05-.41-.07-.13-.01-.26-.02-.38-.02-.12,0-.21,0-.27-.02-.36-.01-.72,0-1.09.03-.37.03-.71.07-1.04.12-.32.05-.61.1-.87.16-.26.06-.46.1-.6.14-.04.01-.09.03-.16.04-.07.01-.14.03-.22.04-.08.01-.16.02-.25.03-.08,0-.16,0-.24,0-.12,0-.24-.03-.36-.06-.12-.03-.23-.08-.33-.14-.2-.12-.35-.3-.44-.54-.09-.24-.09-.55.01-.93.1-.38.31-.82.64-1.34.33-.51.81-1.1,1.44-1.76.09-.08.17-.15.25-.21.07-.05.15-.1.23-.13.08-.03.16-.04.23-.03.08.02.14.08.19.19.04.1.06.28.04.53-.01.22-.07.42-.17.6-.1.18-.2.32-.29.42l-.13.14c-.07.07-.14.1-.19.09-.05-.01-.1-.04-.14-.09-.03-.03-.06-.03-.1,0-.02.01-.03.03-.04.05-.05.08-.08.16-.07.23,0,.07.03.14.08.2.04.06.1.1.18.13.08.03.16.05.24.05s.17-.01.27-.03c.1-.02.19-.06.29-.12.1-.06.19-.15.29-.26.1-.11.19-.26.29-.44.06-.12.11-.26.14-.41.03-.15.05-.31.04-.47-.01-.16-.04-.31-.1-.47-.06-.15-.15-.29-.28-.41-.12-.11-.24-.19-.37-.23-.13-.04-.24-.06-.34-.06-.04,0-.14,0-.31.04-.16.03-.37.13-.62.28-.25.15-.53.39-.86.72-.32.33-.67.78-1.03,1.37-.28.46-.46.87-.53,1.24-.07.36-.06.68.03.94.09.26.24.48.45.66.21.18.46.31.73.4.43.13.88.17,1.35.11.7-.1,1.37-.19,2.02-.28.64-.08,1.22-.11,1.72-.08.09,0,.19.02.32.04.13.02.25.05.38.1.12.04.24.1.35.17.11.07.19.15.25.24.03.05.07.07.11.06.04-.02.08-.05.11-.1.04-.05.08-.12.12-.2.04-.12.04-.22-.01-.31-.05-.09-.12-.16-.22-.21"/>
      <path class="cls-2" d="M44.88,27.84s-.07-.01-.11,0c-.05.03-.1.07-.16.13-.07.07-.14.14-.21.22-.07.07-.14.16-.22.25-.08.09-.17.18-.26.28-.09.09-.17.16-.23.2-.06.04-.11.07-.16.08-.05.01-.1,0-.13-.01-.07-.05-.08-.15,0-.28.07-.13.18-.29.32-.49l.15-.2s.05-.07.07-.1c.01-.02.04-.05.07-.08.01-.02.03-.04.05-.06.02-.02.03-.04.05-.07.1-.16.14-.3.13-.42-.02-.12-.06-.21-.14-.29-.07-.08-.16-.14-.25-.18-.09-.04-.16-.07-.21-.08.01-.01.02-.02.02-.03.03-.03.05-.07.07-.11.02-.04.04-.08.06-.11.04-.09.06-.18.06-.26s-.03-.14-.08-.18c0,0-.02-.02-.05-.03h-.02s-.09-.02-.18-.03c-.08,0-.17.03-.26.1-.05.05-.1.1-.15.16-.05.07-.07.14-.07.2,0,.06.01.11.03.17.02.05.03.1.04.15.01.05,0,.09-.03.14-.05.06-.09.11-.12.15-.03.04-.08.09-.13.15-.11.15-.22.28-.32.4-.06.07-.11.14-.15.21-.03.02-.05.05-.08.09-.06.07-.13.15-.2.23-.06.07-.13.15-.2.24-.07.09-.15.18-.23.27-.08.1-.15.17-.22.21-.06.04-.12.07-.16.08-.05.01-.1.01-.13,0-.04-.03-.06-.07-.06-.13s.02-.13.05-.22c.03-.08.07-.17.13-.27.05-.09.11-.19.17-.29,0,0,0-.01,0-.01h0s.01-.02.01-.02c0,0,0,0,.01,0h0s0-.02.01-.02h0s.02-.04.03-.06c0-.02.02-.04.03-.05h.01v-.02h0s0-.02,0-.02,0,0,0-.01,0-.01.01-.01h0v-.02c.05-.09.06-.19.01-.29-.05-.1-.16-.18-.33-.23-.09-.03-.18-.02-.26.04-.08.06-.15.12-.21.2,0,0-.01,0-.01,0,0,0,0,0-.01,0-.07.09-.19.23-.34.41-.15.18-.31.36-.47.53-.16.17-.32.32-.47.45-.15.12-.26.18-.33.16-.08-.03-.11-.09-.1-.18.01-.09.05-.2.12-.33.07-.12.15-.25.26-.39.1-.14.21-.26.31-.38.11-.11.21-.2.3-.27h.01s.02-.02.03-.03c0,0,.02-.01.03-.02.04-.03.08-.05.12-.08.04-.03.08-.05.12-.07.21-.13.4-.22.55-.26.15-.04.26-.05.32-.04.11.01.18.06.19.14v.06s0,.08.04.09c.01,0,.03,0,.05,0,.01,0,.03,0,.06-.02h0s.04-.04.06-.07c.01-.03.02-.05.03-.07,0-.02,0-.05.02-.1,0-.11-.03-.19-.08-.26-.04-.07-.09-.12-.15-.15-.07-.04-.14-.07-.22-.09-.3-.05-.58-.04-.85.04-.27.08-.49.17-.66.28-.02.01-.04.02-.05.03-.01,0-.03.01-.04.03l-.06.04c-.17.12-.33.25-.47.4-.14.14-.24.28-.31.4-.07.13-.13.26-.17.41-.04.15-.05.29-.03.44.01.15.06.29.13.42.07.13.18.25.32.35.07.05.15.07.23.06.08-.01.16-.04.25-.09.09-.05.17-.11.26-.19.08-.08.17-.16.25-.25.18-.21.36-.45.55-.74-.05.14-.08.27-.07.38,0,.11.04.22.09.31.05.09.1.17.17.24.07.06.13.12.19.16.11.07.23.11.36.1.12-.01.24-.07.34-.17.02-.02.06-.07.12-.14.06-.07.13-.15.21-.24.08-.09.16-.18.24-.27.08-.09.15-.17.2-.23.05-.05.08-.1.1-.15.01-.03.02-.05.03-.08.03-.03.07-.06.11-.11.03-.03.07-.07.13-.14.05-.05.11-.13.19-.22.08-.09.17-.21.29-.35.02-.03.04-.06.07-.09.02-.03.05-.05.07-.08.03-.03.05-.05.07-.08.02-.02.04-.05.06-.08h0s.05.08.05.13c0,.04-.01.09-.04.13-.02.04-.04.08-.07.12-.02.03-.04.05-.05.06h0s-.01.03-.02.04c0,0-.01.01-.01.03-.05.07-.11.15-.16.23-.05.08-.1.15-.16.23-.05.09-.1.19-.14.3-.04.1-.07.19-.09.27-.04.21-.02.39.07.53.08.14.17.24.27.3.11.07.22.11.35.1.12,0,.24-.06.35-.16.02-.02.07-.07.14-.14.07-.07.15-.15.24-.24.09-.09.17-.18.26-.27.09-.09.16-.17.21-.23.05-.05.09-.1.12-.15.03-.05.05-.09.06-.12.02-.03.03-.06.04-.09.01-.09,0-.15-.03-.17"/>
      <path class="cls-2" d="M34.22,30.81h-.35l-.12.4s-.01.05-.01.07c0,.1.1.15.29.15l.19-.61ZM35.34,31.42c-.05.18-.19.27-.42.27h-.65c-.18,0-.28-.06-.28-.18-.12.14-.28.21-.46.21-.13,0-.24-.04-.32-.12-.08-.08-.12-.19-.12-.32,0-.24.09-.43.27-.56.16-.13.36-.19.6-.19h.95l-.28.89h.71ZM33.14,31.42c0,.08-.04.15-.13.2-.08.05-.16.07-.24.07h-.65c-.17,0-.26-.07-.26-.21,0-.04,0-.08.02-.12l.17-.55h-.35l-.25.49c-.03.08-.08.12-.17.12h-.15l.22-.61c-.07-.02-.13-.05-.17-.11-.04-.05-.06-.12-.06-.19,0-.13.06-.23.18-.3.1-.06.22-.09.36-.09h.27l-.14.42h.91l-.28.89h.72ZM29.73,31.74c-.07,0-.13.04-.2.13-.06.08-.09.17-.09.25,0,.08.03.14.1.18l.19-.56ZM30,30.81h-.32l-.13.43s-.01.05-.01.07c0,.1.06.14.19.14,0,0,.02,0,.04,0,.02,0,.03,0,.04,0l.2-.65ZM31.17,31.42c-.05.18-.23.27-.52.27h-.31c-.1.28-.2.47-.3.6-.14.18-.33.27-.55.27-.13,0-.23-.04-.3-.11-.07-.07-.11-.17-.11-.3,0-.25.07-.41.22-.48-.11-.03-.19-.07-.26-.15-.08-.08-.12-.19-.12-.3,0-.05,0-.1.02-.15.05-.18.15-.32.31-.42.14-.08.31-.13.51-.13h.95l-.31.89h.78ZM28.96,31.42c-.02.09-.08.16-.16.21-.08.04-.16.07-.26.07h-.95c-.55,0-.83-.17-.83-.5,0-.21.09-.38.28-.5.16-.1.36-.16.58-.16h.25c.14,0,.27.02.38.07.15.06.22.15.23.27,0,.12-.05.22-.17.3h-.56l.18-.37h-.36l-.14.41s-.01.05-.01.06c0,.09.07.14.22.14h1.33ZM27.47,29.65c0,.12-.05.22-.14.29-.09.08-.19.11-.31.11s-.23-.04-.31-.11l-.57,1.57c-.05.15-.15.23-.28.23-.18,0-.28-.08-.32-.23l-.28-1.33-.38,1.13c-.04.12-.12.21-.23.28-.11.07-.22.1-.35.1h-.81c.05-.13.09-.21.13-.26.07-.1.15-.15.24-.15.05,0,.14.01.25.03.11.02.19.03.25.03.12,0,.2-.07.25-.22l.52-1.52c.04-.13.08-.22.11-.25.05-.07.14-.1.25-.1.17,0,.28.12.33.36l.23,1.16.35-.98c.13-.37.33-.55.6-.55.12,0,.23.04.32.11.1.08.14.18.14.3ZM21.04,30.81h-.35l-.12.4s-.01.05-.01.07c0,.1.1.15.29.15l.19-.61ZM22.16,31.42c-.05.18-.19.27-.42.27h-.65c-.18,0-.28-.06-.28-.18-.12.14-.28.21-.46.21-.13,0-.24-.04-.32-.12-.08-.08-.12-.19-.12-.32,0-.24.09-.43.27-.56.16-.13.36-.19.6-.19h.95l-.28.89h.71ZM19.96,31.42c-.05.18-.2.27-.43.27h-.87c-.17,0-.25-.06-.25-.18,0-.03,0-.06.02-.1l.19-.61h-.26l.1-.27c.18-.05.32-.12.41-.2.1-.09.21-.25.32-.49h.33l-.21.68h.41c-.07.18-.2.27-.4.27h-.1l-.19.61h.92ZM18.47,31.42c-.03.1-.09.17-.2.22-.07.03-.15.05-.23.05h-.68c-.16,0-.23-.05-.23-.15,0-.03,0-.07.02-.12l.11-.37-.58.5c-.14.1-.25.14-.33.14h-.31l.36-1.16h.61l-.18.58.52-.45c.14-.12.3-.18.46-.18.11,0,.17.06.17.17,0,.04,0,.09-.03.14l-.19.62h.7ZM15.15,30.81h-.39l-.15.44s-.01.04-.01.06c0,.1.09.15.27.15.02,0,.04,0,.06,0l.23-.65ZM17,30.54c-.05.18-.18.27-.41.27h-1.07s.07.07.09.14c.02.07.03.12.03.17-.02.19-.1.34-.25.45-.14.1-.33.16-.56.16-.27,0-.47-.05-.62-.16-.13-.1-.19-.22-.19-.38,0-.03,0-.06,0-.09.03-.17.11-.31.26-.4.15-.1.35-.16.6-.16h2.11ZM14.38,29.87c0,.34-.24.63-.71.87-.32.16-.69.29-1.13.37l-.18.59h-.61l.54-1.75h.61l-.26.82c.23-.05.44-.13.62-.23.25-.15.38-.32.39-.52,0-.13-.04-.21-.13-.25-.05-.02-.15-.04-.29-.04h-1.74l.27-.43h1.75c.26,0,.45.03.59.1.19.09.29.25.29.47Z"/>
    </g>
  </g>
</svg>