<?xml version="1.0" encoding="UTF-8"?>
<svg id="Camada_2" data-name="Camada 2" xmlns="http://www.w3.org/2000/svg" xmlns:xlink="http://www.w3.org/1999/xlink" viewBox="0 0 400 360.65">
  <defs>
    <style>
      .cls-1 {
        fill: url(#Nova_amostra_de_gradiente_1-8);
      }

      .cls-2 {
        fill: url(#Nova_amostra_de_gradiente_1);
      }

      .cls-3 {
        fill: url(#Nova_amostra_de_gradiente_1-5);
      }

      .cls-4 {
        fill: url(#Nova_amostra_de_gradiente_1-15);
      }

      .cls-5 {
        fill: url(#Nova_amostra_de_gradiente_1-13);
      }

      .cls-6 {
        fill: url(#Nova_amostra_de_gradiente_1-3);
      }

      .cls-7 {
        fill: url(#Nova_amostra_de_gradiente_1-2);
      }

      .cls-8 {
        fill: url(#Nova_amostra_de_gradiente_1-7);
      }

      .cls-9 {
        fill: url(#Nova_amostra_de_gradiente_1-6);
      }

      .cls-10 {
        fill: url(#Nova_amostra_de_gradiente_1-9);
      }

      .cls-11 {
        fill: url(#Nova_amostra_de_gradiente_1-10);
      }

      .cls-12 {
        fill: url(#Nova_amostra_de_gradiente_1-14);
      }

      .cls-13 {
        fill: url(#Nova_amostra_de_gradiente_1-4);
      }

      .cls-14 {
        fill: url(#Nova_amostra_de_gradiente_1-12);
      }

      .cls-15 {
        fill: url(#Nova_amostra_de_gradiente_1-11);
      }

      .cls-16 {
        fill: url(#Nova_amostra_de_gradiente_1-16);
      }
    </style>
    <linearGradient id="Nova_amostra_de_gradiente_1" data-name="Nova amostra de gradiente 1" x1="332.6" y1="296.84" x2="364.58" y2="315.3" gradientTransform="translate(-15.44 -32.22) rotate(6.36)" gradientUnits="userSpaceOnUse">
      <stop offset="0" stop-color="#fff"/>
      <stop offset=".21" stop-color="#fafafa"/>
      <stop offset=".43" stop-color="#ededed"/>
      <stop offset=".44" stop-color="#ededed"/>
      <stop offset="1" stop-color="#f6f6f6"/>
    </linearGradient>
    <linearGradient id="Nova_amostra_de_gradiente_1-2" data-name="Nova amostra de gradiente 1" x1="370.3" y1="286.63" x2="419.77" y2="315.19" xlink:href="#Nova_amostra_de_gradiente_1"/>
    <linearGradient id="Nova_amostra_de_gradiente_1-3" data-name="Nova amostra de gradiente 1" x1="97.2" y1="38.05" x2="186.12" y2="89.39" gradientTransform="matrix(1,0,0,1,0,0)" xlink:href="#Nova_amostra_de_gradiente_1"/>
    <linearGradient id="Nova_amostra_de_gradiente_1-4" data-name="Nova amostra de gradiente 1" x1="170.89" y1="36.6" x2="253.33" y2="84.2" gradientTransform="matrix(1,0,0,1,0,0)" xlink:href="#Nova_amostra_de_gradiente_1"/>
    <linearGradient id="Nova_amostra_de_gradiente_1-5" data-name="Nova amostra de gradiente 1" x1="242.17" y1="51.95" x2="310.11" y2="91.18" gradientTransform="matrix(1,0,0,1,0,0)" xlink:href="#Nova_amostra_de_gradiente_1"/>
    <linearGradient id="Nova_amostra_de_gradiente_1-6" data-name="Nova amostra de gradiente 1" x1="-9.71" y1="178.4" x2="50.6" y2="213.21" gradientTransform="matrix(1,0,0,1,0,0)" xlink:href="#Nova_amostra_de_gradiente_1"/>
    <linearGradient id="Nova_amostra_de_gradiente_1-7" data-name="Nova amostra de gradiente 1" x1="47.35" y1="176.76" x2="113.78" y2="215.11" gradientTransform="matrix(1,0,0,1,0,0)" xlink:href="#Nova_amostra_de_gradiente_1"/>
    <linearGradient id="Nova_amostra_de_gradiente_1-8" data-name="Nova amostra de gradiente 1" x1="94.13" y1="180.73" x2="138.83" y2="206.53" gradientTransform="matrix(1,0,0,1,0,0)" xlink:href="#Nova_amostra_de_gradiente_1"/>
    <linearGradient id="Nova_amostra_de_gradiente_1-9" data-name="Nova amostra de gradiente 1" x1="140.5" y1="167.26" x2="202.76" y2="203.21" gradientTransform="matrix(1,0,0,1,0,0)" xlink:href="#Nova_amostra_de_gradiente_1"/>
    <linearGradient id="Nova_amostra_de_gradiente_1-10" data-name="Nova amostra de gradiente 1" x1="190.13" y1="171.37" x2="254.77" y2="208.69" gradientTransform="matrix(1,0,0,1,0,0)" xlink:href="#Nova_amostra_de_gradiente_1"/>
    <linearGradient id="Nova_amostra_de_gradiente_1-11" data-name="Nova amostra de gradiente 1" x1="243.56" y1="179.24" x2="302.43" y2="213.23" gradientTransform="matrix(1,0,0,1,0,0)" xlink:href="#Nova_amostra_de_gradiente_1"/>
    <linearGradient id="Nova_amostra_de_gradiente_1-12" data-name="Nova amostra de gradiente 1" x1="293.33" y1="184.42" x2="350.11" y2="217.2" gradientTransform="matrix(1,0,0,1,0,0)" xlink:href="#Nova_amostra_de_gradiente_1"/>
    <linearGradient id="Nova_amostra_de_gradiente_1-13" data-name="Nova amostra de gradiente 1" x1="355.13" y1="191.37" x2="409.69" y2="222.87" gradientTransform="matrix(1,0,0,1,0,0)" xlink:href="#Nova_amostra_de_gradiente_1"/>
    <linearGradient id="Nova_amostra_de_gradiente_1-14" data-name="Nova amostra de gradiente 1" x1="35.72" y1="273.34" x2="111.11" y2="316.87" gradientTransform="translate(7.37 8.92) rotate(-2.68)" xlink:href="#Nova_amostra_de_gradiente_1"/>
    <linearGradient id="Nova_amostra_de_gradiente_1-15" data-name="Nova amostra de gradiente 1" x1="99.41" y1="285.16" x2="172" y2="327.06" gradientTransform="translate(7.37 8.92) rotate(-2.68)" xlink:href="#Nova_amostra_de_gradiente_1"/>
    <linearGradient id="Nova_amostra_de_gradiente_1-16" data-name="Nova amostra de gradiente 1" x1="160.47" y1="282.84" x2="239.4" y2="328.41" gradientTransform="translate(7.37 8.92) rotate(-2.68)" xlink:href="#Nova_amostra_de_gradiente_1"/>
  </defs>
  <g id="Camada_1-2" data-name="Camada 1">
    <g>
      <path class="cls-2" d="M298.89,285.05c6.13.44,8.98,3.72,8.54,9.85-.43,6.13-3.72,8.98-9.85,8.54-6.13-.43-8.98-3.72-8.54-9.85.43-6.13,3.72-8.98,9.85-8.54ZM296.57,317.76c6.13.44,8.98,3.72,8.55,9.85-.44,6.13-3.72,8.98-9.85,8.54-6.13-.43-8.98-3.72-8.54-9.85.43-6.13,3.72-8.98,9.84-8.55Z"/>
      <path class="cls-7" d="M354.79,267.27l-.9,6.8c-10.66,9.23-17.11,22.33-19.35,39.29-2.21,16.69.64,30.89,8.53,42.61l-.62,4.67c-19.45-11.7-27.71-28.62-24.78-50.78,2.93-22.16,15.3-36.36,37.12-42.6Z"/>
    </g>
    <g>
      <path class="cls-6" d="M112.02,112.09l-3.9-92.95,25.19-1.56,29.63,77.95-3.17-79.55,11.92-.41,3.22,93.23-22.73.78-22.41-60.7,2.25,61.97-20.01,1.22ZM128.78,33.76c8.13,26.52,13.97,44.1,17.52,52.75-5.84-19.63-11.68-37.22-17.52-52.75Z"/>
      <path class="cls-13" d="M196.27,84.17l-6.14,27.63-11.32-1.39,22.11-92.92,19.93.14,21.3,85.93-15.4,5.23-5.14-24.88-25.34.26ZM195.91,15.68l-7.82-8.86,15.84-6.81,15.46,8.13,5.15-7.51,10.96,4.03-12.56,17.78-20.25-10.69-6.79,3.93ZM221.47,75.22l-9.25-44.4-9.83,44.38,19.08.02Z"/>
      <path class="cls-3" d="M246.39,105.9l7.89-74.92,45.5,2.71-.25,75.81-53.15-3.6ZM263,76.17l.31-.72c.45-8.54.62-14.92.52-19.14-.49,2.2-.81,5.99-.95,11.36l-.02,4.78.14,3.73ZM264.31,93.98l20.07,2.7,4.35-55.06-21.74-2.22-2.68,54.59ZM267.95,98.03l.62.25c5.72.84,10.73,1.43,15.03,1.76-2.2-.52-4.61-.97-7.25-1.35l-4.64-.49-3.76-.17ZM292.91,96.2c.38-3.94.38-6.63.01-8.07-.39,2.88-.39,5.57-.01,8.07ZM295.76,74.6c.02-.92.03-1.61.02-2.07.09-3.25.29-11.43.59-24.55l-1.14,14.43-.14,8.44c-.22,5.3-.39,11.92-.52,19.88.28-.02.55-2.1.8-6.24.25-4.14.38-7.44.39-9.88Z"/>
    </g>
    <g>
      <path class="cls-9" d="M14.83,247.63L0,161.59l43.43-7.57,2.86,16.82-28.95,2.98,1.94,23.93,21.8-.94,1.81,14.99-16.65,2.69,6.33,29.96-17.74,3.19ZM4.95,175.86c.05-2.24-.55-6.39-1.82-12.47.16,3.88.77,8.04,1.82,12.47ZM13.35,198.27c-1.55-8.21-2.41-12.29-2.56-12.24,2.75,15.74,5.06,28.81,6.94,39.21l2.91,16.81.19-.03c-1.01-6.95-2.06-13.66-3.16-20.12-.17-.91-.4-2.25-.7-4.01-.86-4.88-2.07-11.42-3.62-19.63ZM15.72,239.36c-.15-3.57-1.57-11.41-4.25-23.54.53,5.25,1.98,14.27,4.34,27.06-.04-1.8-.07-2.98-.09-3.52ZM16.49,229.26c-1.62-11.45-3.17-19.89-4.67-25.32,2.05,13.03,3.61,21.47,4.67,25.32ZM18.27,238.59l-.19.03,1.2,7.04.23-.04-1.25-7.03ZM27.78,242.2c-.37-2.66-1.78-9.07-4.24-19.23-.07.4.25,2.64.96,6.73.72,3.12,1.82,7.29,3.28,12.49Z"/>
      <path class="cls-8" d="M59.61,230.64l-4.13-67.97,40.97-4.37,11.08,67.62-47.92,4.72ZM70,201.65l.17-.69c-.87-7.68-1.67-13.39-2.38-17.14-.11,2.04.17,5.46.84,10.27l.69,4.26.69,3.3ZM73.82,217.34l18.29-.58-4.33-49.74-19.71,1.26,5.75,49.06ZM77.66,220.4l.59.13c5.22-.1,9.78-.32,13.66-.67-2.04-.14-4.26-.18-6.66-.12l-4.21.25-3.38.41ZM98.96,195.37c-.12-.82-.22-1.44-.29-1.85-.4-2.91-1.45-10.24-3.13-21.98l1.13,13.03,1.13,7.54c.6,4.75,1.43,10.69,2.5,17.8.25-.06.18-1.95-.21-5.68-.39-3.73-.77-6.69-1.13-8.87ZM99.64,215.05c-.25-3.57-.64-5.97-1.19-7.2.08,2.63.48,5.02,1.19,7.2Z"/>
      <path class="cls-1" d="M120,156.47l5.61,72.94-13.48.9-4.38-73.18,12.25-.66ZM117.36,196.92c.1,1.34.19,2.36.27,3.05.39,4.84.9,9.85,1.54,15.02h.14s-1.07-12.61-1.07-12.61c-.58-7.87-1.37-17.72-2.37-29.56-.16.01-.03,3.12.4,9.31.42,6.2.79,11.13,1.09,14.79ZM116.57,165.27c.25,5.94.56,9.97.94,12.08-.1-4.38-.41-8.41-.94-12.08Z"/>
      <path class="cls-10" d="M151.69,147.88l36.55-3.05,8.34,11.76,1.54,54.64-8.36,13.15-36.51.22-1.56-76.73ZM167.25,217.81c-1.89-.25-5.46-.11-10.72.41,3.29.22,6.87.08,10.72-.41ZM167.18,216.52l6.22-.27c7.18-.37,12.23-.81,15.16-1.32-5.65.12-14.14.56-25.47,1.33l-.9.26h4.98ZM187.39,211.56l-.63-54.47-23.86,2.5,4.73,53.29,19.76-1.32Z"/>
      <path class="cls-11" d="M201.88,233.62l2.77-87.39,41.64,2.1v17.73s-30.42-5.59-30.42-5.59l-.31,15.57,12.95,1.25.22,11.7-10.45,1.84-.39,31.38,22.85-1.65-.49,13.26-38.38-.19ZM208.84,172.79c-.5,9.22-.57,15.16-.23,17.82.05.35.18,1.2.36,2.55.19-9.65.15-16.44-.14-20.37ZM213.38,189.78c-.27.6-.61,4.23-1.01,10.9-.04,5.14.08,12.06.37,20.76.43-4.33.64-14.89.64-31.66ZM212.49,231.17h.1s.04-1.72.04-1.72h-.1s-.04,1.72-.04,1.72ZM215.14,184.94c-.43,4.18-.53,10.55-.31,19.12.33-2.93.44-9.3.31-19.12ZM227.09,231.69c5.33.33,8.66.42,10.01.26.22-.03.69-.08,1.39-.16-5.55-.18-9.35-.21-11.4-.11Z"/>
      <path class="cls-15" d="M249.9,220.7l32.63,3.86,1.39-10.8-33.27-7.55,6.19-49.94,39.4,3.19.25,7.99-28.96-.09-1.44,33.09,25.65,4.03-1.77,30.37-42.11-2.9,2.05-11.24ZM257.67,182.39c1.25-8.59,1.82-14.15,1.72-16.69-.04-.36-.09-1.16-.17-2.41-.96,9.03-1.48,15.39-1.55,19.1ZM257.78,204.45c.76-3.88,1.37-9.85,1.85-17.88-.55,2.75-1.17,8.71-1.85,17.88ZM259.92,200.04c.33-.52.98-3.9,1.97-10.14.47-4.8.9-11.27,1.28-19.41-.76,3.98-1.85,13.83-3.25,29.55ZM264.25,161.35h-.09s-.21,1.61-.21,1.61h.14s.16-1.61.16-1.61ZM280.99,231.36c-5.39-.8-8.77-1.17-10.15-1.11-.22-.02-.69-.02-1.39,0,5.62.66,9.47,1.03,11.54,1.11Z"/>
      <path class="cls-14" d="M297.48,224.22l32.42,5.33,1.88-10.73-32.9-9.06,8.46-49.61,39.21,4.97-.12,7.99-28.92-1.4-2.94,32.99,25.44,5.19-3.15,30.26-41.93-4.81,2.56-11.13ZM306.09,208.35c.93-3.85,1.82-9.77,2.66-17.78-.67,2.72-1.56,8.65-2.66,17.78ZM306.98,186.31c1.64-8.52,2.47-14.05,2.47-16.59-.02-.36-.04-1.16-.05-2.42-1.37,8.98-2.18,15.31-2.42,19.01ZM308.43,204.04c.35-.5,1.16-3.85,2.43-10.04.69-4.78,1.41-11.22,2.16-19.33-.94,3.94-2.47,13.73-4.59,29.37ZM314.52,165.59h-.09s-.29,1.59-.29,1.59l.14.02.24-1.61ZM328.05,236.29c-5.35-1.04-8.71-1.57-10.09-1.57-.22-.03-.69-.05-1.39-.07,5.58.91,9.41,1.46,11.48,1.63Z"/>
      <path class="cls-5" d="M361.65,216.06l-9.25,23.85-9.93-2.78,32.43-80.01,17.79,2.84,7.31,79.68-14.47,2.57-1.2-22.94-22.68-3.23ZM385.39,211.5l-2.21-40.94-14.84,38.32,17.05,2.62Z"/>
    </g>
    <g>
      <path class="cls-12" d="M76.94,269.92l28.59,69.43,2.62-72.82,15.35-1.07-4.12,81.44-24.32,3.49-36.67-75.08,18.56-5.38ZM68.4,275.82c2.53,6.56,4.34,10.68,5.42,12.36.18.26.54.81,1.07,1.65-2.87-6.72-5.04-11.39-6.5-14.01ZM88.42,308.36c-.02.39.65,2.4,2,6.02,1.22,2.72,2.96,6.32,5.2,10.8-.79-2.39-3.19-8-7.21-16.82ZM88.32,305.31c.75,2.33,2.2,5.7,4.37,10.13-.51-1.62-1.96-5-4.37-10.13ZM97.78,330.39l.1-.07-.39-.9h-.1s.4.96.4.96ZM108.64,346.49c1.13.02,3.92-.33,8.37-1.06-1.71.09-4.87.45-9.48,1.05.57.03.94.03,1.11,0Z"/>
      <path class="cls-4" d="M138.68,357.77l-4.83-95.48,45.56-1.46,1.61,19.32-33.66-3.36,1.06,16.99,14.23.2,1.29,12.73-11.22,2.94,2.39,34.23,24.76-3.86.66,14.5-41.85,3.24ZM140.8,290.87c.29,10.09.74,16.57,1.35,19.44.09.38.3,1.29.63,2.75-.66-10.52-1.32-17.92-1.98-22.19ZM147.28,308.97c-.24.68-.28,4.67-.11,11.97.42,5.61,1.17,13.14,2.26,22.59.08-4.76-.63-16.28-2.15-34.56ZM150.02,354.15h.1s-.11-1.89-.11-1.89h-.1s.1,1.89.1,1.89ZM148.76,303.53c-.09,4.59.37,11.54,1.38,20.86.1-3.22-.36-10.18-1.38-20.86ZM165.98,353.41c5.83-.12,9.48-.32,10.93-.61.24-.05.74-.15,1.51-.3-6.07.31-10.22.61-12.44.91Z"/>
      <path class="cls-16" d="M192.73,260.99l61.94,3.42-1.9,33.69-55.05,32.25,53.03,3.16-1.12,15.94-62.08-4.38,2.14-30.36,42.77-24.18-41.24-2.8,1.52-26.73ZM242.58,290.56c-18.48,8.39-30.8,14.54-36.96,18.45,13.69-5.93,26.01-12.08,36.96-18.45Z"/>
    </g>
  </g>
</svg>